<svg xmlns="http://www.w3.org/2000/svg" width="670" height="176" viewBox="0 0 670 176" role="img" aria-label="BMTNews">
<path fill="#1b1b18" fill-rule="evenodd" transform="translate(20 24) scale(.25)" d="M110 36H460C482 36 494 54 486 75L444 182C439 195 428 202 413 202H65C42 202 32 186 40 165L78 67C86 46 95 36 110 36ZM360 95H408Q416 95 413 103L400 136Q398 142 391 142H344Q337 142 340 134L353 102Q356 95 360 95ZM82 229H454C477 229 489 248 482 270C456 382 406 454 328 478C310 484 297 480 307 462C320 438 329 413 334 386C337 373 329 360 314 360H38C15 360 5 339 14 319L38 260C46 239 61 229 82 229Z"/><path fill="#1b1b18" transform="translate(176 34)" d="M67.67578125 60.37109375Q67.67578125 65.595703125 65.576171875 69.3310546875Q63.4765625 73.06640625 59.8388671875 75.4345703125Q56.201171875 77.802734375 51.3671875 78.9013671875Q46.533203125 80.0 41.11328125 80.0H6.689453125V11.201171875H38.18359375Q44.287109375 11.201171875 49.0478515625 12.2509765625Q53.80859375 13.30078125 57.080078125 15.44921875Q60.3515625 17.59765625 62.0361328125 20.8447265625Q63.720703125 24.091796875 63.720703125 28.486328125Q63.720703125 34.345703125 60.4736328125 38.3740234375Q57.2265625 42.40234375 50.5859375 43.818359375Q58.935546875 44.794921875 63.3056640625 49.0673828125Q67.67578125 53.33984375 67.67578125 60.37109375ZM49.21875 30.439453125Q49.21875 25.80078125 46.2646484375 23.84765625Q43.310546875 21.89453125 37.5 21.89453125H21.09375V38.935546875H37.59765625Q43.701171875 38.935546875 46.4599609375 36.8115234375Q49.21875 34.6875 49.21875 30.439453125ZM53.22265625 59.248046875Q53.22265625 56.513671875 52.1484375 54.658203125Q51.07421875 52.802734375 49.1943359375 51.6796875Q47.314453125 50.556640625 44.7998046875 50.068359375Q42.28515625 49.580078125 39.35546875 49.580078125H21.09375V69.306640625H39.892578125Q42.724609375 69.306640625 45.166015625 68.8427734375Q47.607421875 68.37890625 49.3896484375 67.2314453125Q51.171875 66.083984375 52.197265625 64.130859375Q53.22265625 62.177734375 53.22265625 59.248046875ZM136.03515625 80.0V38.30078125Q136.03515625 35.810546875 136.1083984375 33.173828125Q136.181640625 30.537109375 136.279296875 28.33984375Q136.42578125 25.751953125 136.5234375 23.310546875Q135.498046875 27.16796875 134.5703125 30.634765625Q134.1796875 32.099609375 133.740234375 33.662109375Q133.30078125 35.224609375 132.8857421875 36.689453125Q132.470703125 38.154296875 132.080078125 39.423828125Q131.689453125 40.693359375 131.396484375 41.62109375L118.994140625 80.0H108.740234375L96.337890625 41.62109375Q96.044921875 40.693359375 95.6787109375 39.423828125Q95.3125 38.154296875 94.8974609375 36.689453125Q94.482421875 35.224609375 94.04296875 33.662109375Q93.603515625 32.099609375 93.1640625 30.634765625Q92.1875 27.16796875 91.11328125 23.310546875Q91.259765625 26.142578125 91.40625 28.876953125Q91.50390625 31.220703125 91.6015625 33.80859375Q91.69921875 36.396484375 91.69921875 38.30078125V80.0H78.90625V11.201171875H98.193359375L110.498046875 49.677734375Q110.986328125 51.19140625 111.5478515625 53.388671875Q112.109375 55.5859375 112.646484375 57.63671875Q113.232421875 60.029296875 113.916015625 62.6171875Q114.599609375 60.078125 115.234375 57.734375Q115.52734375 56.708984375 115.8203125 55.634765625Q116.11328125 54.560546875 116.40625 53.53515625Q116.69921875 52.509765625 116.9921875 51.58203125Q117.28515625 50.654296875 117.529296875 49.921875L129.638671875 11.201171875H148.828125V80.0ZM193.26171875 22.333984375V80.0H178.857421875V22.333984375H156.640625V11.201171875H215.52734375V22.333984375ZM265.185546875 80.0 235.205078125 27.021484375Q235.44921875 29.169921875 235.64453125 31.318359375Q235.83984375 33.173828125 235.9619140625 35.322265625Q236.083984375 37.470703125 236.083984375 39.423828125V80.0H223.291015625V11.201171875H239.74609375L270.166015625 64.619140625Q269.921875 62.568359375 269.7265625 60.322265625Q269.53125 58.41796875 269.4091796875 56.025390625Q269.287109375 53.6328125 269.287109375 51.19140625V11.201171875H282.080078125V80.0ZM317.431640625 80.9765625Q311.71875 80.9765625 307.1533203125 79.2919921875Q302.587890625 77.607421875 299.365234375 74.1650390625Q296.142578125 70.72265625 294.43359375 65.5224609375Q292.724609375 60.322265625 292.724609375 53.33984375Q292.724609375 45.771484375 294.7509765625 40.595703125Q296.77734375 35.419921875 300.2197265625 32.2216796875Q303.662109375 29.0234375 308.154296875 27.607421875Q312.646484375 26.19140625 317.626953125 26.19140625Q323.876953125 26.19140625 328.2958984375 28.3642578125Q332.71484375 30.537109375 335.546875 34.443359375Q338.37890625 38.349609375 339.697265625 43.7939453125Q341.015625 49.23828125 341.015625 55.830078125V56.220703125H307.12890625Q307.12890625 59.541015625 307.71484375 62.3974609375Q308.30078125 65.25390625 309.619140625 67.3291015625Q310.9375 69.404296875 313.037109375 70.6005859375Q315.13671875 71.796875 318.115234375 71.796875Q321.728515625 71.796875 324.0234375 70.2587890625Q326.318359375 68.720703125 327.294921875 65.498046875L340.234375 66.62109375Q339.35546875 68.8671875 337.7685546875 71.40625Q336.181640625 73.9453125 333.544921875 76.0693359375Q330.908203125 78.193359375 326.9775390625 79.5849609375Q323.046875 80.9765625 317.431640625 80.9765625ZM317.431640625 34.833984375Q315.33203125 34.833984375 313.5009765625 35.5419921875Q311.669921875 36.25 310.3271484375 37.7880859375Q308.984375 39.326171875 308.154296875 41.767578125Q307.32421875 44.208984375 307.2265625 47.626953125H327.734375Q327.34375 41.23046875 324.658203125 38.0322265625Q321.97265625 34.833984375 317.431640625 34.833984375ZM365.72265625 67.548828125 375.927734375 27.16796875H390.625L400.732421875 67.548828125L409.716796875 27.16796875H422.412109375L408.544921875 80.0H394.04296875L383.349609375 36.93359375L372.314453125 80.0H357.8125L344.140625 27.16796875H357.03125ZM473.73046875 64.5703125Q473.73046875 68.37890625 472.1435546875 71.40625Q470.556640625 74.43359375 467.529296875 76.5576171875Q464.501953125 78.681640625 460.107421875 79.8291015625Q455.712890625 80.9765625 450.09765625 80.9765625Q445.068359375 80.9765625 441.015625 80.244140625Q436.962890625 79.51171875 433.9111328125 77.8271484375Q430.859375 76.142578125 428.80859375 73.45703125Q426.7578125 70.771484375 425.732421875 66.81640625L437.79296875 65.009765625Q438.37890625 67.20703125 439.404296875 68.57421875Q440.4296875 69.94140625 441.943359375 70.673828125Q443.45703125 71.40625 445.4833984375 71.650390625Q447.509765625 71.89453125 450.09765625 71.89453125Q452.44140625 71.89453125 454.4677734375 71.6259765625Q456.494140625 71.357421875 457.9833984375 70.6982421875Q459.47265625 70.0390625 460.302734375 68.8427734375Q461.1328125 67.646484375 461.1328125 65.83984375Q461.1328125 63.7890625 459.9365234375 62.5927734375Q458.740234375 61.396484375 456.6650390625 60.6396484375Q454.58984375 59.8828125 451.7822265625 59.3212890625Q448.974609375 58.759765625 445.80078125 58.02734375Q442.48046875 57.294921875 439.2578125 56.26953125Q436.03515625 55.244140625 433.49609375 53.486328125Q430.95703125 51.728515625 429.39453125 49.0185546875Q427.83203125 46.30859375 427.83203125 42.158203125Q427.83203125 38.3984375 429.296875 35.4443359375Q430.76171875 32.490234375 433.59375 30.4150390625Q436.42578125 28.33984375 440.6005859375 27.2412109375Q444.775390625 26.142578125 450.1953125 26.142578125Q454.4921875 26.142578125 458.203125 26.9482421875Q461.9140625 27.75390625 464.84375 29.4873046875Q467.7734375 31.220703125 469.7509765625 33.90625Q471.728515625 36.591796875 472.509765625 40.400390625L460.3515625 41.669921875Q460.009765625 39.765625 459.130859375 38.5205078125Q458.251953125 37.275390625 456.9580078125 36.54296875Q455.6640625 35.810546875 453.955078125 35.5419921875Q452.24609375 35.2734375 450.1953125 35.2734375Q445.3125 35.2734375 442.87109375 36.5185546875Q440.4296875 37.763671875 440.4296875 40.693359375Q440.4296875 42.5 441.4306640625 43.57421875Q442.431640625 44.6484375 444.2626953125 45.3564453125Q446.09375 46.064453125 448.6083984375 46.5771484375Q451.123046875 47.08984375 454.1015625 47.822265625Q457.763671875 48.603515625 461.3037109375 49.6533203125Q464.84375 50.703125 467.6025390625 52.5341796875Q470.361328125 54.365234375 472.0458984375 57.24609375Q473.73046875 60.126953125 473.73046875 64.5703125Z"/>
</svg>
